<svg width="298" height="75" viewBox="0 0 298 75" fill="none" xmlns="http://www.w3.org/2000/svg">
<path d="M42.9111 22.0378L39.0565 23.1715L29.4766 53.0449H13.8313L4.76161 23.1715L1.02034 22.0378V13.3649H21.0871V22.0378L18.3095 23.1715L23.5246 40.4607L28.513 23.1715L25.8487 22.0378V13.3649H42.9111V22.0378ZM80.5 45.9592C77.609 48.2833 74.7748 50.7208 71.8838 53.0449H55.6716L47.1121 45.9592V20.2805L55.3882 13.3649H72.2239L80.5 20.2805V45.9592ZM67.2922 23.1715H60.3199L58.7894 24.3619V41.9912L60.3766 43.295H67.2355L68.8227 41.9912V24.3619L67.2922 23.1715ZM118.352 19.827V27.3096H107.752L106.618 23.1715H98.7958L97.1519 24.4753V41.9345L98.8525 43.295H106.618L107.752 39.1569H118.352V46.356C115.688 48.6234 112.967 50.8342 110.303 53.0449H94.601L85.4746 45.449V20.6773L94.2609 13.3649H110.643L118.352 19.827Z" fill="#30BA39"/>
<path d="M158.425 27.3096H150.092L148.958 23.1715H139.435V29.577H148.958V36.3793H139.435V43.295H148.958L150.092 39.1569H158.482V53.0449H123.45V44.4287L127.758 43.295V23.1715L123.45 22.0378V13.3649H158.425V27.3096ZM151.623 9.39686H144.367L141.022 4.23846L137.451 9.39686H130.195L138.415 0.893997H143.573L151.623 9.39686ZM176.172 40.2906H166.819L165.061 13.3649H177.986L176.172 40.2906ZM176.342 53.0449H166.705V44.4854H176.342V53.0449Z" fill="#F59C00"/>
<line x1="189.897" y1="1" x2="189.897" y2="64.7715" stroke="#30BA39" stroke-width="1.41714"/>
<path d="M201.8 14.9232C202.901 14.9232 203.705 15.1393 204.212 15.5715C204.722 15.9998 204.977 16.615 204.977 17.4171C204.977 17.7792 204.916 18.1238 204.796 18.4508C204.679 18.774 204.488 19.0602 204.223 19.3094C203.959 19.5547 203.61 19.7493 203.178 19.8934C202.75 20.0336 202.224 20.1037 201.601 20.1037H200.561V23.4619H199.568V14.9232H201.8ZM201.706 15.7701H200.561V19.251H201.49C202.035 19.251 202.489 19.1926 202.851 19.0757C203.217 18.9589 203.491 18.7701 203.674 18.5092C203.857 18.2445 203.949 17.894 203.949 17.4579C203.949 16.8895 203.768 16.467 203.406 16.1906C203.044 15.9102 202.477 15.7701 201.706 15.7701ZM209.071 14.9232C209.772 14.9232 210.35 15.0108 210.805 15.186C211.265 15.3573 211.608 15.6202 211.833 15.9745C212.059 16.3288 212.172 16.7805 212.172 17.3295C212.172 17.7811 212.09 18.1588 211.927 18.4625C211.763 18.7623 211.549 19.0057 211.284 19.1926C211.02 19.3794 210.737 19.5235 210.438 19.6247L212.78 23.4619H211.623L209.532 19.8992H207.757V23.4619H206.764V14.9232H209.071ZM209.012 15.7817H207.757V19.0582H209.112C209.809 19.0582 210.321 18.9161 210.648 18.6319C210.979 18.3476 211.144 17.9291 211.144 17.3762C211.144 16.796 210.969 16.3852 210.619 16.1438C210.272 15.9024 209.737 15.7817 209.012 15.7817ZM221.552 19.1809C221.552 19.8389 221.468 20.4385 221.301 20.9797C221.133 21.517 220.884 21.9804 220.553 22.3698C220.226 22.7552 219.819 23.0531 219.333 23.2633C218.846 23.4736 218.281 23.5787 217.639 23.5787C216.977 23.5787 216.399 23.4736 215.904 23.2633C215.414 23.0531 215.005 22.7533 214.678 22.3639C214.355 21.9745 214.111 21.5093 213.948 20.968C213.788 20.4268 213.708 19.8272 213.708 19.1692C213.708 18.297 213.852 17.5319 214.14 16.8739C214.429 16.2159 214.865 15.7039 215.449 15.3379C216.037 14.9719 216.772 14.7889 217.656 14.7889C218.501 14.7889 219.212 14.9699 219.788 15.332C220.368 15.6941 220.806 16.2042 221.102 16.8622C221.402 17.5163 221.552 18.2892 221.552 19.1809ZM214.754 19.1809C214.754 19.9051 214.857 20.532 215.063 21.0615C215.27 21.591 215.585 21.9999 216.009 22.288C216.438 22.5761 216.981 22.7202 217.639 22.7202C218.301 22.7202 218.842 22.5761 219.262 22.288C219.687 21.9999 220 21.591 220.203 21.0615C220.405 20.532 220.506 19.9051 220.506 19.1809C220.506 18.079 220.275 17.2185 219.811 16.5994C219.352 15.9764 218.634 15.6649 217.656 15.6649C216.994 15.6649 216.449 15.807 216.021 16.0913C215.593 16.3755 215.273 16.7805 215.063 17.3061C214.857 17.8278 214.754 18.4528 214.754 19.1809ZM227.106 18.9881H230.091V23.129C229.643 23.2809 229.181 23.3938 228.706 23.4678C228.235 23.5417 227.708 23.5787 227.124 23.5787C226.236 23.5787 225.486 23.4016 224.875 23.0472C224.268 22.6929 223.806 22.1887 223.491 21.5346C223.176 20.8765 223.018 20.0959 223.018 19.1926C223.018 18.3087 223.191 17.5378 223.538 16.8797C223.888 16.2217 224.392 15.7117 225.05 15.3495C225.712 14.9835 226.507 14.8005 227.433 14.8005C227.908 14.8005 228.358 14.8453 228.782 14.9349C229.211 15.0205 229.608 15.1432 229.974 15.3028L229.594 16.1672C229.279 16.0309 228.93 15.9141 228.549 15.8168C228.171 15.7194 227.78 15.6708 227.375 15.6708C226.678 15.6708 226.08 15.8148 225.582 16.103C225.087 16.3911 224.708 16.798 224.443 17.3236C224.182 17.8493 224.052 18.4722 224.052 19.1926C224.052 19.9051 224.166 20.5261 224.396 21.0557C224.626 21.5813 224.984 21.9901 225.471 22.2821C225.958 22.5742 226.584 22.7202 227.351 22.7202C227.737 22.7202 228.068 22.6988 228.344 22.6559C228.621 22.6092 228.872 22.5547 229.098 22.4924V19.8759H227.106V18.9881ZM234.465 14.9232C235.166 14.9232 235.744 15.0108 236.2 15.186C236.659 15.3573 237.002 15.6202 237.228 15.9745C237.453 16.3288 237.566 16.7805 237.566 17.3295C237.566 17.7811 237.485 18.1588 237.321 18.4625C237.158 18.7623 236.943 19.0057 236.679 19.1926C236.414 19.3794 236.132 19.5235 235.832 19.6247L238.174 23.4619H237.017L234.926 19.8992H233.151V23.4619H232.158V14.9232H234.465ZM234.407 15.7817H233.151V19.0582H234.506C235.203 19.0582 235.715 18.9161 236.042 18.6319C236.373 18.3476 236.538 17.9291 236.538 17.3762C236.538 16.796 236.363 16.3852 236.013 16.1438C235.666 15.9024 235.131 15.7817 234.407 15.7817ZM244.896 23.4619L243.845 20.752H240.422L239.377 23.4619H238.372L241.713 14.8881H242.607L245.924 23.4619H244.896ZM243.547 19.87L242.548 17.1776C242.525 17.1075 242.486 16.9927 242.431 16.833C242.381 16.6734 242.328 16.5079 242.274 16.3366C242.219 16.1653 242.174 16.027 242.139 15.9219C242.101 16.0815 242.058 16.2412 242.011 16.4008C241.968 16.5566 241.925 16.7026 241.882 16.8389C241.84 16.9712 241.803 17.0842 241.771 17.1776L240.755 19.87H243.547ZM250.865 23.4619L247.997 15.9044H247.951C247.966 16.064 247.98 16.2587 247.992 16.4884C248.003 16.7182 248.013 16.9693 248.021 17.2418C248.029 17.5105 248.032 17.785 248.032 18.0653V23.4619H247.11V14.9232H248.581L251.286 22.0252H251.326L254.071 14.9232H255.532V23.4619H254.55V17.9953C254.55 17.7422 254.554 17.4891 254.562 17.236C254.57 16.979 254.58 16.7376 254.591 16.5118C254.603 16.2821 254.615 16.0835 254.626 15.9161H254.58L251.677 23.4619H250.865ZM263.223 23.4619L262.172 20.752H258.75L257.704 23.4619H256.7L260.04 14.8881H260.934L264.251 23.4619H263.223ZM261.874 19.87L260.876 17.1776C260.852 17.1075 260.813 16.9927 260.759 16.833C260.708 16.6734 260.656 16.5079 260.601 16.3366C260.547 16.1653 260.502 16.027 260.467 15.9219C260.428 16.0815 260.385 16.2412 260.338 16.4008C260.295 16.5566 260.253 16.7026 260.21 16.8389C260.167 16.9712 260.13 17.0842 260.099 17.1776L259.083 19.87H261.874ZM205.532 28.9232L202.465 37.4619H201.467L198.4 28.9232H199.44L201.437 34.5475C201.519 34.7734 201.591 34.9895 201.654 35.1958C201.72 35.4022 201.778 35.6008 201.829 35.7915C201.879 35.9823 201.924 36.1673 201.963 36.3464C202.002 36.1673 202.047 35.9823 202.097 35.7915C202.148 35.5969 202.206 35.3963 202.273 35.19C202.339 34.9797 202.413 34.7597 202.495 34.53L204.48 28.9232H205.532ZM214.111 33.1809C214.111 33.8389 214.027 34.4385 213.86 34.9797C213.693 35.517 213.443 35.9804 213.112 36.3698C212.785 36.7552 212.379 37.0531 211.892 37.2633C211.405 37.4736 210.841 37.5787 210.198 37.5787C209.536 37.5787 208.958 37.4736 208.463 37.2633C207.973 37.0531 207.564 36.7533 207.237 36.3639C206.914 35.9745 206.67 35.5093 206.507 34.968C206.347 34.4268 206.267 33.8272 206.267 33.1692C206.267 32.297 206.412 31.5319 206.7 30.8739C206.988 30.2159 207.424 29.7039 208.008 29.3379C208.596 28.9719 209.332 28.7889 210.216 28.7889C211.061 28.7889 211.771 28.9699 212.347 29.332C212.928 29.6941 213.366 30.2042 213.661 30.8622C213.961 31.5163 214.111 32.2892 214.111 33.1809ZM207.313 33.1809C207.313 33.9051 207.416 34.532 207.622 35.0615C207.829 35.591 208.144 35.9999 208.569 36.288C208.997 36.5761 209.54 36.7202 210.198 36.7202C210.86 36.7202 211.401 36.5761 211.822 36.288C212.246 35.9999 212.56 35.591 212.762 35.0615C212.964 34.532 213.066 33.9051 213.066 33.1809C213.066 32.079 212.834 31.2185 212.371 30.5994C211.911 29.9764 211.193 29.6649 210.216 29.6649C209.554 29.6649 209.009 29.807 208.58 30.0913C208.152 30.3755 207.833 30.7805 207.622 31.3061C207.416 31.8278 207.313 32.4528 207.313 33.1809ZM219.665 29.6766C219.194 29.6766 218.77 29.7584 218.392 29.9219C218.018 30.0815 217.699 30.3152 217.434 30.6228C217.174 30.9265 216.973 31.2944 216.833 31.7266C216.693 32.1588 216.623 32.6455 216.623 33.1867C216.623 33.9031 216.734 34.5261 216.955 35.0557C217.181 35.5813 217.516 35.9882 217.96 36.2763C218.408 36.5644 218.967 36.7085 219.636 36.7085C220.018 36.7085 220.376 36.6773 220.711 36.6151C221.05 36.5489 221.379 36.4671 221.698 36.3698V37.2341C221.386 37.3509 221.059 37.4366 220.717 37.4911C220.374 37.5495 219.967 37.5787 219.496 37.5787C218.628 37.5787 217.902 37.3996 217.318 37.0414C216.737 36.6793 216.301 36.1692 216.009 35.5112C215.721 34.8532 215.577 34.0764 215.577 33.1809C215.577 32.5345 215.667 31.9446 215.846 31.4112C216.029 30.8739 216.294 30.4106 216.64 30.0212C216.991 29.6318 217.419 29.332 217.925 29.1218C218.435 28.9076 219.019 28.8005 219.677 28.8005C220.109 28.8005 220.526 28.8434 220.927 28.929C221.328 29.0147 221.69 29.1373 222.013 29.297L221.616 30.138C221.344 30.0134 221.044 29.9063 220.717 29.8168C220.394 29.7233 220.043 29.6766 219.665 29.6766ZM228.303 37.4619H223.549V28.9232H228.303V29.7993H224.542V32.5618H228.087V33.4262H224.542V36.5858H228.303V37.4619ZM226.54 26.1607C226.637 26.3359 226.773 26.5345 226.948 26.7564C227.124 26.9744 227.309 27.1886 227.503 27.3988C227.698 27.6091 227.871 27.7901 228.023 27.942V28.0705H227.334C227.124 27.9342 226.908 27.7668 226.686 27.5682C226.464 27.3696 226.248 27.1633 226.037 26.9491C225.827 27.1633 225.613 27.3696 225.395 27.5682C225.181 27.7629 224.969 27.9303 224.758 28.0705H224.092V27.942C224.24 27.7863 224.408 27.6033 224.595 27.393C224.786 27.1827 224.967 26.9686 225.138 26.7505C225.313 26.5325 225.451 26.3359 225.553 26.1607H226.54ZM231.159 36.0719L231.235 36.2062C231.165 36.4905 231.076 36.7942 230.967 37.1173C230.862 37.4405 230.745 37.7637 230.616 38.0868C230.492 38.4139 230.365 38.7196 230.237 39.0038H229.512C229.594 38.6923 229.674 38.3633 229.752 38.0168C229.83 37.6741 229.9 37.3354 229.962 37.0005C230.028 36.6618 230.081 36.3522 230.12 36.0719H231.159ZM204.323 51.4619H199.568V42.9232H204.323V43.7993H200.561V46.5618H204.106V47.4262H200.561V50.5858H204.323V51.4619ZM209.97 51.4619L207.103 43.9044H207.056C207.071 44.064 207.085 44.2587 207.097 44.4884C207.108 44.7182 207.118 44.9693 207.126 45.2418C207.134 45.5105 207.138 45.785 207.138 46.0653V51.4619H206.215V42.9232H207.687L210.391 50.0252H210.432L213.177 42.9232H214.637V51.4619H213.656V45.9953C213.656 45.7422 213.66 45.4891 213.667 45.236C213.675 44.979 213.685 44.7376 213.697 44.5118C213.708 44.2821 213.72 44.0835 213.732 43.9161H213.685L210.782 51.4619H209.97ZM219.204 42.9232C220.306 42.9232 221.11 43.1393 221.616 43.5715C222.126 43.9998 222.381 44.615 222.381 45.4171C222.381 45.7792 222.321 46.1238 222.2 46.4508C222.083 46.774 221.893 47.0602 221.628 47.3094C221.363 47.5547 221.015 47.7493 220.582 47.8934C220.154 48.0336 219.628 48.1037 219.005 48.1037H217.966V51.4619H216.973V42.9232H219.204ZM219.111 43.7701H217.966V47.251H218.894C219.44 47.251 219.893 47.1926 220.255 47.0757C220.621 46.9589 220.896 46.7701 221.079 46.5092C221.262 46.2445 221.353 45.894 221.353 45.4579C221.353 44.8895 221.172 44.467 220.81 44.1906C220.448 43.9102 219.882 43.7701 219.111 43.7701ZM226.475 42.9232C227.176 42.9232 227.754 43.0108 228.21 43.186C228.669 43.3573 229.012 43.6202 229.238 43.9745C229.464 44.3288 229.577 44.7805 229.577 45.3295C229.577 45.7811 229.495 46.1588 229.331 46.4625C229.168 46.7623 228.954 47.0057 228.689 47.1926C228.424 47.3794 228.142 47.5235 227.842 47.6247L230.184 51.4619H229.028L226.937 47.8992H225.161V51.4619H224.168V42.9232H226.475ZM226.417 43.7817H225.161V47.0582H226.516C227.213 47.0582 227.725 46.9161 228.052 46.6319C228.383 46.3476 228.549 45.9291 228.549 45.3762C228.549 44.796 228.374 44.3852 228.023 44.1438C227.677 43.9024 227.141 43.7817 226.417 43.7817ZM236.305 51.4619H231.551V42.9232H236.305V43.7993H232.544V46.5618H236.089V47.4262H232.544V50.5858H236.305V51.4619ZM242.951 51.4619H238.197V42.9232H242.951V43.7993H239.19V46.5618H242.735V47.4262H239.19V50.5858H242.951V51.4619ZM251.519 51.4619H250.374L245.72 44.2899H245.673C245.685 44.4806 245.698 44.6987 245.714 44.944C245.729 45.1854 245.741 45.4443 245.749 45.7208C245.761 45.9933 245.766 46.2717 245.766 46.5559V51.4619H244.844V42.9232H245.982L250.62 50.0719H250.661C250.653 49.9356 250.643 49.7429 250.631 49.4937C250.62 49.2406 250.608 48.97 250.596 48.6819C250.589 48.3898 250.585 48.1192 250.585 47.87V42.9232H251.519V51.4619ZM260.63 47.1108C260.63 48.0725 260.455 48.8765 260.105 49.5229C259.754 50.1653 259.246 50.6501 258.58 50.9772C257.918 51.3003 257.114 51.4619 256.168 51.4619H253.85V42.9232H256.425C257.293 42.9232 258.041 43.0828 258.668 43.4021C259.295 43.7175 259.778 44.1867 260.116 44.8097C260.459 45.4287 260.63 46.1958 260.63 47.1108ZM259.585 47.1458C259.585 46.3788 259.456 45.7461 259.199 45.2477C258.946 44.7493 258.572 44.3794 258.078 44.138C257.587 43.8927 256.986 43.7701 256.273 43.7701H254.842V50.6092H256.051C257.227 50.6092 258.109 50.3191 258.697 49.739C259.289 49.1588 259.585 48.2944 259.585 47.1458ZM267.283 51.4619H262.528V42.9232H267.283V43.7993H263.521V46.5618H267.066V47.4262H263.521V50.5858H267.283V51.4619ZM275.956 47.1108C275.956 48.0725 275.78 48.8765 275.43 49.5229C275.08 50.1653 274.571 50.6501 273.906 50.9772C273.244 51.3003 272.44 51.4619 271.493 51.4619H269.175V42.9232H271.75C272.619 42.9232 273.366 43.0828 273.993 43.4021C274.62 43.7175 275.103 44.1867 275.442 44.8097C275.784 45.4287 275.956 46.1958 275.956 47.1108ZM274.91 47.1458C274.91 46.3788 274.782 45.7461 274.525 45.2477C274.272 44.7493 273.898 44.3794 273.403 44.138C272.913 43.8927 272.311 43.7701 271.599 43.7701H270.168V50.6092H271.377C272.553 50.6092 273.434 50.3191 274.022 49.739C274.614 49.1588 274.91 48.2944 274.91 47.1458ZM285.259 47.1809C285.259 47.8389 285.176 48.4385 285.008 48.9797C284.841 49.517 284.592 49.9804 284.261 50.3698C283.934 50.7552 283.527 51.0531 283.04 51.2633C282.553 51.4736 281.989 51.5787 281.346 51.5787C280.684 51.5787 280.106 51.4736 279.612 51.2633C279.121 51.0531 278.712 50.7533 278.385 50.3639C278.062 49.9745 277.819 49.5093 277.655 48.968C277.496 48.4268 277.416 47.8272 277.416 47.1692C277.416 46.297 277.56 45.5319 277.848 44.8739C278.136 44.2159 278.572 43.7039 279.156 43.3379C279.744 42.9719 280.48 42.7889 281.364 42.7889C282.209 42.7889 282.919 42.9699 283.496 43.332C284.076 43.6941 284.514 44.2042 284.81 44.8622C285.109 45.5163 285.259 46.2892 285.259 47.1809ZM278.461 47.1809C278.461 47.9051 278.564 48.532 278.771 49.0615C278.977 49.591 279.292 49.9999 279.717 50.288C280.145 50.5761 280.688 50.7202 281.346 50.7202C282.008 50.7202 282.549 50.5761 282.97 50.288C283.394 49.9999 283.708 49.591 283.91 49.0615C284.113 48.532 284.214 47.9051 284.214 47.1809C284.214 46.079 283.982 45.2185 283.519 44.5994C283.06 43.9764 282.341 43.6649 281.364 43.6649C280.702 43.6649 280.157 43.807 279.729 44.0913C279.3 44.3755 278.981 44.7805 278.771 45.3061C278.564 45.8278 278.461 46.4528 278.461 47.1809ZM289.47 42.9232C290.171 42.9232 290.749 43.0108 291.205 43.186C291.664 43.3573 292.007 43.6202 292.233 43.9745C292.459 44.3288 292.572 44.7805 292.572 45.3295C292.572 45.7811 292.49 46.1588 292.326 46.4625C292.163 46.7623 291.949 47.0057 291.684 47.1926C291.419 47.3794 291.137 47.5235 290.837 47.6247L293.179 51.4619H292.023L289.932 47.8992H288.156V51.4619H287.163V42.9232H289.47ZM289.412 43.7817H288.156V47.0582H289.511C290.208 47.0582 290.72 46.9161 291.047 46.6319C291.378 46.3476 291.544 45.9291 291.544 45.3762C291.544 44.796 291.369 44.3852 291.018 44.1438C290.672 43.9024 290.136 43.7817 289.412 43.7817ZM295.276 49.0907H294.639L294.37 42.9232H295.544L295.276 49.0907ZM294.254 50.8545C294.254 50.582 294.32 50.3892 294.452 50.2763C294.585 50.1595 294.75 50.1011 294.949 50.1011C295.143 50.1011 295.307 50.1595 295.439 50.2763C295.576 50.3892 295.644 50.582 295.644 50.8545C295.644 51.1232 295.576 51.3198 295.439 51.4444C295.307 51.5651 295.143 51.6254 294.949 51.6254C294.75 51.6254 294.585 51.5651 294.452 51.4444C294.32 51.3198 294.254 51.1232 294.254 50.8545Z" fill="#30BA39"/>
<path d="M71.3947 64.0666H72.7104V72.4395H71.3947V64.0666ZM73.6958 64.0666H75.3465L76.6263 69.0784H76.6503V64.0666H77.8225V72.4395H76.4708L74.892 66.3273H74.868V72.4395H73.6958V64.0666ZM80.6544 72.5591C80.0244 72.5591 79.542 72.3796 79.2071 72.0208C78.8801 71.662 78.7167 71.1556 78.7167 70.5017V66.0043C78.7167 65.3504 78.8801 64.8441 79.2071 64.4852C79.542 64.1264 80.0244 63.947 80.6544 63.947C81.2843 63.947 81.7628 64.1264 82.0897 64.4852C82.4246 64.8441 82.5921 65.3504 82.5921 66.0043V66.8894H81.3481V65.9206C81.3481 65.4023 81.1288 65.1431 80.6903 65.1431C80.2517 65.1431 80.0324 65.4023 80.0324 65.9206V70.5974C80.0324 71.1078 80.2517 71.3629 80.6903 71.3629C81.1288 71.3629 81.3481 71.1078 81.3481 70.5974V69.3176H82.5921V70.5017C82.5921 71.1556 82.4246 71.662 82.0897 72.0208C81.7628 72.3796 81.2843 72.5591 80.6544 72.5591ZM85.2931 72.5591C84.6552 72.5591 84.1687 72.3796 83.8338 72.0208C83.4989 71.654 83.3314 71.1317 83.3314 70.4539V64.0666H84.6472V70.5496C84.6472 70.8366 84.703 71.044 84.8146 71.1716C84.9342 71.2992 85.1017 71.3629 85.317 71.3629C85.5323 71.3629 85.6958 71.2992 85.8074 71.1716C85.927 71.044 85.9868 70.8366 85.9868 70.5496V64.0666H87.2547V70.4539C87.2547 71.1317 87.0873 71.654 86.7524 72.0208C86.4174 72.3796 85.931 72.5591 85.2931 72.5591ZM88.1918 64.0666H90.1774C90.8552 64.0666 91.3496 64.2261 91.6606 64.545C91.9716 64.856 92.1271 65.3385 92.1271 65.9924V66.3273C92.1271 66.7579 92.0553 67.1087 91.9118 67.3799C91.7762 67.651 91.5649 67.8463 91.2778 67.966V67.9899C91.9317 68.2132 92.2586 68.7953 92.2586 69.7362V70.4539C92.2586 71.0998 92.0872 71.5942 91.7443 71.9371C91.4094 72.272 90.915 72.4395 90.2611 72.4395H88.1918V64.0666ZM90.0219 67.4755C90.285 67.4755 90.4804 67.4078 90.608 67.2722C90.7435 67.1366 90.8113 66.9094 90.8113 66.5904V66.1239C90.8113 65.8209 90.7555 65.6016 90.6439 65.4661C90.5402 65.3305 90.3727 65.2627 90.1415 65.2627H89.5075V67.4755H90.0219ZM90.2611 71.2433C90.4924 71.2433 90.6638 71.1835 90.7754 71.0639C90.8871 70.9363 90.9429 70.721 90.9429 70.418V69.6884C90.9429 69.3056 90.8751 69.0425 90.7396 68.8989C90.612 68.7474 90.3967 68.6717 90.0936 68.6717H89.5075V71.2433H90.2611ZM94.0444 64.0666H95.8266L97.1902 72.4395H95.8745L95.6352 70.7768V70.8008H94.1401L93.9009 72.4395H92.6808L94.0444 64.0666ZM95.4797 69.6645L94.8936 65.5259H94.8697L94.2956 69.6645H95.4797ZM100.353 66.8894V65.9206C100.353 65.4023 100.134 65.1431 99.695 65.1431C99.2565 65.1431 99.0372 65.4023 99.0372 65.9206V70.5974C99.0372 71.1078 99.2565 71.3629 99.695 71.3629C100.134 71.3629 100.353 71.1078 100.353 70.5974V69.3176H101.597V70.5017C101.597 71.0998 101.457 71.5782 101.178 71.9371C100.899 72.2879 100.496 72.4913 99.9702 72.5471V72.9059C100.241 72.9059 100.445 72.9498 100.58 73.0375C100.724 73.1252 100.795 73.2688 100.795 73.4681C100.795 73.7632 100.696 73.9585 100.496 74.0542C100.297 74.1499 99.9901 74.1978 99.5754 74.1978C99.2086 74.1978 98.9255 74.1459 98.7262 74.0423C98.5268 73.9386 98.4272 73.7592 98.4272 73.504V73.3844H99.3123V73.4801C99.3123 73.5598 99.3362 73.6196 99.3841 73.6595C99.4399 73.6994 99.5037 73.7193 99.5754 73.7193C99.6871 73.7193 99.7668 73.6954 99.8147 73.6475C99.8625 73.6077 99.8864 73.5359 99.8864 73.4322C99.8864 73.3206 99.8505 73.2409 99.7788 73.193C99.707 73.1452 99.5954 73.1212 99.4439 73.1212H99.3841V72.5471C98.8418 72.4913 98.4272 72.2879 98.1401 71.9371C97.861 71.5862 97.7214 71.1078 97.7214 70.5017V66.0043C97.7214 65.3504 97.8849 64.8441 98.2119 64.4852C98.5468 64.1264 99.0292 63.947 99.6592 63.947C100.289 63.947 100.768 64.1264 101.095 64.4852C101.429 64.8441 101.597 65.3504 101.597 66.0043V66.8894H100.353ZM103.401 64.0666H105.183L106.547 72.4395H105.231L104.992 70.7768V70.8008H103.496L103.257 72.4395H102.037L103.401 64.0666ZM104.836 69.6645L104.25 65.5259H104.226L103.652 69.6645H104.836ZM102.635 63.1695C102.787 62.8266 102.95 62.5754 103.126 62.416C103.301 62.2485 103.5 62.1648 103.724 62.1648C103.867 62.1648 103.991 62.1847 104.095 62.2246C104.206 62.2644 104.322 62.3203 104.441 62.392C104.513 62.4319 104.581 62.4678 104.645 62.4997C104.717 62.5316 104.784 62.5475 104.848 62.5475C104.944 62.5475 105.028 62.5116 105.099 62.4399C105.171 62.3681 105.247 62.2485 105.327 62.081L105.96 62.4638C105.809 62.8067 105.646 63.0619 105.47 63.2293C105.295 63.3888 105.095 63.4685 104.872 63.4685C104.728 63.4685 104.601 63.4486 104.489 63.4087C104.386 63.3689 104.274 63.313 104.154 63.2413C104.083 63.2014 104.011 63.1655 103.939 63.1336C103.875 63.1017 103.811 63.0858 103.748 63.0858C103.652 63.0858 103.568 63.1217 103.496 63.1934C103.425 63.2652 103.349 63.3848 103.269 63.5523L102.635 63.1695ZM109.063 72.5591C108.417 72.5591 107.923 72.3757 107.58 72.0088C107.237 71.642 107.066 71.1237 107.066 70.4539V66.0522C107.066 65.3823 107.237 64.864 107.58 64.4972C107.923 64.1304 108.417 63.947 109.063 63.947C109.709 63.947 110.204 64.1304 110.547 64.4972C110.889 64.864 111.061 65.3823 111.061 66.0522V70.4539C111.061 71.1237 110.889 71.642 110.547 72.0088C110.204 72.3757 109.709 72.5591 109.063 72.5591ZM109.063 71.3629C109.518 71.3629 109.745 71.0878 109.745 70.5376V65.9684C109.745 65.4182 109.518 65.1431 109.063 65.1431C108.609 65.1431 108.382 65.4182 108.382 65.9684V70.5376C108.382 71.0878 108.609 71.3629 109.063 71.3629Z" fill="#30BA39"/>
</svg>
